<svg xmlns="http://www.w3.org/2000/svg" width="1200" height="800" viewBox="0 0 1200 800" fill="none">
  <g stroke="#F4F0E8" stroke-width="0.8" opacity="0.07">
    <!-- Wasatch-style elevation contours -->
    <path d="M-50 650 C100 620, 200 640, 350 610 S500 580, 650 600 S800 590, 950 570 S1100 560, 1250 580"/>
    <path d="M-50 600 C80 570, 220 590, 380 560 S520 530, 680 550 S850 540, 1000 520 S1150 510, 1250 530"/>
    <path d="M-50 550 C120 510, 250 530, 400 500 S560 470, 720 490 S900 480, 1050 460 S1180 450, 1250 470"/>
    <path d="M-50 490 C90 450, 230 470, 370 440 S530 410, 690 430 S870 420, 1020 400 S1160 390, 1250 410"/>
    <path d="M-50 430 C110 390, 260 410, 410 380 S570 350, 730 370 S910 360, 1060 340 S1200 330, 1250 350"/>
    <path d="M-50 370 C80 330, 240 350, 390 320 S550 290, 710 310 S880 300, 1030 280 S1170 270, 1250 290"/>
    <path d="M-50 310 C100 270, 270 290, 420 260 S580 230, 740 250 S920 240, 1070 220 S1210 210, 1250 230"/>
    <path d="M-50 250 C120 210, 280 230, 430 200 S590 170, 750 190 S930 180, 1080 160 S1220 150, 1250 170"/>
    <path d="M-50 190 C90 150, 250 170, 400 140 S560 110, 720 130 S890 120, 1040 100 S1180 90, 1250 110"/>
    <path d="M-50 140 C110 100, 260 120, 410 90 S570 60, 730 80 S900 70, 1050 50 S1190 40, 1250 60"/>
    <!-- Secondary contours (tighter) -->
    <path d="M-50 700 C150 680, 300 690, 450 670 S600 660, 750 680 S900 670, 1050 650 S1150 640, 1250 660" opacity="0.5"/>
    <path d="M-50 520 C100 490, 240 510, 390 480 S550 450, 710 470 S880 460, 1030 440 S1170 430, 1250 450" opacity="0.5"/>
    <path d="M-50 340 C90 310, 230 330, 380 300 S540 270, 700 290 S870 280, 1020 260 S1160 250, 1250 270" opacity="0.5"/>
    <path d="M-50 160 C100 130, 260 150, 410 120 S570 90, 730 110 S900 100, 1050 80 S1190 70, 1250 90" opacity="0.5"/>
  </g>
</svg>
